<svg xmlns="http://www.w3.org/2000/svg" xmlns:xlink="http://www.w3.org/1999/xlink" version="1.1" x="0px" y="0px" viewBox="0 0 90 112.5" enable-background="new 0 0 90 90" xml:space="preserve"><path d="M63.463,47.43c-1.956,0-3.605,1.251-4.233,2.99l-4.459-0.548c-0.233-2.275-2.134-4.058-4.471-4.058  c-2.495,0-4.518,2.022-4.518,4.517c0,1.252,0.511,2.385,1.333,3.203l-3.233,5.164c-0.466-0.162-0.958-0.269-1.48-0.269  c-2.495,0-4.517,2.022-4.517,4.517c0,2.495,2.022,4.518,4.517,4.518s4.517-2.022,4.517-4.518c0-1.252-0.51-2.384-1.333-3.201  l3.233-5.165c0.466,0.162,0.959,0.269,1.48,0.269c1.956,0,3.605-1.251,4.233-2.99l4.459,0.547c0.233,2.276,2.133,4.059,4.471,4.059  c2.495,0,4.517-2.022,4.517-4.518c0-1.108-0.414-2.109-1.077-2.896l3.212-4.252c0.566,0.256,1.189,0.406,1.852,0.406  c2.495,0,4.518-2.022,4.518-4.517c0-2.495-2.022-4.518-4.518-4.518c-2.494,0-4.517,2.022-4.517,4.518  c0,1.107,0.415,2.109,1.077,2.896l-3.212,4.252C64.749,47.58,64.125,47.43,63.463,47.43z"/><path d="M83.213,25.154L69.04,10.982c-0.281-0.281-0.663-0.439-1.061-0.439H47.815c-0.828,0-1.5,0.671-1.5,1.5  c0,0.828,0.672,1.5,1.5,1.5h19.164v12.672c0,0.553,0.447,1,1,1h12.673v49.242H33.716V48.523c0-0.828-0.671-1.5-1.5-1.5  s-1.5,0.672-1.5,1.5v29.434c0,0.828,0.671,1.5,1.5,1.5h49.937c0.828,0,1.5-0.672,1.5-1.5V26.215  C83.652,25.817,83.494,25.436,83.213,25.154z M68.979,25.215V15.164l10.052,10.051H68.979z"/><path d="M49.122,27.448c0-9.321-7.584-16.905-16.906-16.905c-9.322,0-16.906,7.584-16.906,16.905c0,4.122,1.487,7.9,3.947,10.838  L6.787,50.757c-0.586,0.586-0.586,1.535,0,2.121c0.293,0.293,0.677,0.439,1.061,0.439s0.768-0.146,1.061-0.439l12.471-12.471  c2.937,2.46,6.715,3.947,10.837,3.947C41.538,44.354,49.122,36.771,49.122,27.448z M18.31,27.448  c0-7.667,6.238-13.905,13.906-13.905c7.668,0,13.906,6.238,13.906,13.905c0,7.668-6.238,13.906-13.906,13.906  C24.548,41.354,18.31,35.116,18.31,27.448z"/></svg>
