<svg xmlns="http://www.w3.org/2000/svg" xmlns:xlink="http://www.w3.org/1999/xlink" version="1.1" x="0px" y="0px" viewBox="0 0 1000 1250" enable-background="new 0 0 1000 1000" xml:space="preserve"><g><path d="M903.4,98.7l-2.2-2.2c-78.4-78.4-206.1-78.4-284.5,0l-114,114c-61.7,61.7-74.9,153.9-39.5,228.6l79.1-79.1   c-2-28.7,7.9-58.2,29.8-80.1l114-114c40.2-40.2,105.5-40.2,145.6,0l2.2,2.2c40.2,40.2,40.2,105.5,0,145.6l-114,114   c-21.9,21.9-51.4,31.8-80.1,29.8l-79.1,79.1c74.7,35.4,166.9,22.3,228.6-39.5l114-114C981.9,304.8,981.9,177.2,903.4,98.7z"/><path d="M289.3,710.7c19.2,19.2,50.3,19.2,69.4,0l352-352c19.2-19.2,19.2-50.3,0-69.4c-19.2-19.2-50.3-19.2-69.4,0l-352,352   C270.1,660.5,270.1,691.5,289.3,710.7z"/><path d="M457.6,639.9c2,28.7-7.9,58.2-29.8,80.1l-114,114c-40.2,40.2-105.5,40.2-145.6,0l-2.2-2.2c-40.2-40.2-40.2-105.5,0-145.6   l114-114c21.9-21.9,51.4-31.8,80.1-29.8l79.1-79.1c-74.7-35.4-166.9-22.3-228.6,39.5l-114,114c-78.4,78.4-78.4,206.1,0,284.5   l2.2,2.2c78.4,78.4,206.1,78.4,284.5,0l114-114c61.7-61.7,74.9-153.9,39.5-228.6L457.6,639.9z"/></g><text x="0" y="1015" fill="#000000" font-size="5px" font-weight="bold" font-family="'Helvetica Neue', Helvetica, Arial-Unicode, Arial, Sans-serif">Created by Alvaro Cabrera</text><text x="0" y="1020" fill="#000000" font-size="5px" font-weight="bold" font-family="'Helvetica Neue', Helvetica, Arial-Unicode, Arial, Sans-serif">from the Noun Project</text></svg>