<svg xmlns="http://www.w3.org/2000/svg" xmlns:xlink="http://www.w3.org/1999/xlink" version="1.1" x="0px" y="0px" viewBox="0 0 512 640" enable-background="new 0 0 512 512" xml:space="preserve"><g><g><path fill="#FFFFFF" d="M389.422,231.125l-121.625,70.219v140.438L389.422,512l121.625-70.219V301.344L389.422,231.125z     M310.469,414.25c0,5.875-4.781,10.656-10.672,10.656s-10.656-4.781-10.656-10.656v-85.344c0-5.906,4.766-10.656,10.656-10.656    s10.672,4.75,10.672,10.656V414.25z"/></g><g><path fill="#FFFFFF" d="M377.625,70.219L256,0L134.375,70.219v140.438L256,280.875l121.625-70.219V70.219z M253.469,50.75    l-73.891,42.656c-5.109,2.938-11.625,1.188-14.578-3.906c-2.938-5.094-1.203-11.625,3.906-14.562l73.906-42.688    c5.094-2.938,11.625-1.188,14.562,3.906C260.328,41.281,258.578,47.781,253.469,50.75z"/></g><g><path fill="#FFFFFF" d="M0.953,301.344v140.438L122.578,512l121.625-70.219V301.344l-121.625-70.219L0.953,301.344z     M135.766,263.375l73.906,42.688c5.094,2.938,6.844,9.469,3.906,14.562c-2.953,5.094-9.469,6.844-14.578,3.906l-73.891-42.656    c-5.109-2.969-6.859-9.469-3.906-14.594C124.141,262.188,130.672,260.438,135.766,263.375z"/></g></g><text x="0" y="527" fill="#000000" font-size="5px" font-weight="bold" font-family="'Helvetica Neue', Helvetica, Arial-Unicode, Arial, Sans-serif">Created by lastspark</text><text x="0" y="532" fill="#000000" font-size="5px" font-weight="bold" font-family="'Helvetica Neue', Helvetica, Arial-Unicode, Arial, Sans-serif">from the Noun Project</text></svg>