<svg xmlns="http://www.w3.org/2000/svg" xmlns:xlink="http://www.w3.org/1999/xlink" version="1.1" x="0px" y="0px" viewBox="0 0 90 25" enable-background="new 0 0 90 20" xml:space="preserve"><path d="M16.114,3.155h-10C5.095,3.155,4.27,3.981,4.27,5v10c0,1.019,0.826,1.845,1.844,1.845h10c1.019,0,1.845-0.826,1.845-1.845V5  C17.958,3.981,17.133,3.155,16.114,3.155z"/><path d="M32.864,3.155h-10c-1.019,0-1.844,0.826-1.844,1.845v10c0,1.019,0.826,1.845,1.844,1.845h10  c1.019,0,1.845-0.826,1.845-1.845V5C34.708,3.981,33.883,3.155,32.864,3.155z"/><path d="M49.613,3.155h-10c-1.019,0-1.844,0.826-1.844,1.845v10c0,1.019,0.826,1.845,1.844,1.845h10c1.02,0,1.846-0.826,1.846-1.845  V5C51.459,3.981,50.633,3.155,49.613,3.155z"/><path d="M66.363,3.155h-10c-1.018,0-1.844,0.826-1.844,1.845v10c0,1.019,0.826,1.845,1.844,1.845h10c1.02,0,1.846-0.826,1.846-1.845  V5C68.209,3.981,67.383,3.155,66.363,3.155z"/><path d="M83.113,3.155h-10c-1.018,0-1.844,0.826-1.844,1.845v10c0,1.019,0.826,1.845,1.844,1.845h10c1.02,0,1.846-0.826,1.846-1.845  V5C84.959,3.981,84.133,3.155,83.113,3.155z"/></svg>