<svg xmlns="http://www.w3.org/2000/svg" xmlns:xlink="http://www.w3.org/1999/xlink" version="1.1" x="0px" y="0px" viewBox="0 0 100 125" enable-background="new 0 0 100 100" xml:space="preserve"><g><path d="M50,62.573c-6.934,0-12.573-5.64-12.573-12.573S43.066,37.426,50,37.426S62.573,43.066,62.573,50S56.934,62.573,50,62.573z    M50,43.015c-3.853,0-6.985,3.134-6.985,6.985c0,3.853,3.133,6.985,6.985,6.985s6.985-3.133,6.985-6.985   C56.985,46.148,53.853,43.015,50,43.015z"/></g><g><path d="M76.462,87.721c-6.933,0-12.573-5.641-12.573-12.573c0-6.934,5.641-12.574,12.573-12.574   c6.934,0,12.574,5.641,12.574,12.574C89.036,82.08,83.396,87.721,76.462,87.721z M76.462,68.162c-3.853,0-6.985,3.132-6.985,6.985   c0,3.853,3.133,6.985,6.985,6.985c3.854,0,6.985-3.133,6.985-6.985C83.447,71.294,80.315,68.162,76.462,68.162z"/></g><g><path d="M84.927,37.426c-6.934,0-12.574-5.64-12.574-12.573s5.641-12.574,12.574-12.574S97.5,17.919,97.5,24.853   S91.86,37.426,84.927,37.426z M84.927,17.868c-3.854,0-6.985,3.134-6.985,6.985s3.132,6.985,6.985,6.985   c3.853,0,6.985-3.134,6.985-6.985S88.779,17.868,84.927,17.868z"/></g><g><path d="M15.073,27.647C8.14,27.647,2.5,22.007,2.5,15.074C2.5,8.14,8.14,2.5,15.073,2.5s12.574,5.64,12.574,12.574   C27.647,22.007,22.007,27.647,15.073,27.647z M15.073,8.088c-3.853,0-6.985,3.134-6.985,6.985c0,3.851,3.133,6.985,6.985,6.985   c3.854,0,6.985-3.134,6.985-6.985C22.059,11.222,18.927,8.088,15.073,8.088z"/></g><g><path d="M27.647,97.5c-6.934,0-12.574-5.64-12.574-12.573s5.641-12.574,12.574-12.574c6.933,0,12.573,5.641,12.573,12.574   S34.58,97.5,27.647,97.5z M27.647,77.941c-3.854,0-6.985,3.132-6.985,6.985c0,3.853,3.132,6.985,6.985,6.985   c3.853,0,6.985-3.133,6.985-6.985C34.633,81.073,31.5,77.941,27.647,77.941z"/></g><g><path d="M42.409,46.633c-0.739,0-1.479-0.293-2.03-0.873L19.821,24.032c-1.062-1.122-1.013-2.89,0.109-3.951   c1.121-1.057,2.884-1.012,3.951,0.109l20.558,21.728c1.061,1.121,1.012,2.89-0.109,3.951C43.79,46.379,43.1,46.633,42.409,46.633z"/></g><g><path d="M33.32,79.767c-0.56,0-1.125-0.166-1.616-0.516c-1.258-0.893-1.552-2.636-0.66-3.896l12.775-18.006   c0.89-1.256,2.636-1.556,3.896-0.661c1.258,0.893,1.553,2.637,0.661,3.896L35.601,78.591C35.058,79.357,34.195,79.767,33.32,79.767   z"/></g><g><path d="M58.401,47.801c-0.797,0-1.585-0.335-2.137-0.991c-0.996-1.179-0.849-2.941,0.33-3.937l18.063-15.261   c1.182-0.999,2.947-0.843,3.938,0.33c0.996,1.179,0.849,2.941-0.33,3.938L60.202,47.141C59.679,47.585,59.037,47.801,58.401,47.801   z"/></g><g><path d="M69.832,70.765c-0.666,0-1.332-0.234-1.864-0.712L55.31,58.713c-1.151-1.032-1.247-2.797-0.218-3.946   c1.034-1.151,2.802-1.244,3.945-0.218l12.658,11.34c1.151,1.031,1.247,2.797,0.219,3.945   C71.359,70.451,70.599,70.765,69.832,70.765z"/></g></svg>